HIERARCHY
ROOT Hips
{
	OFFSET -3.958830 18.904000 13.208200
	CHANNELS 6 Xposition Yposition Zposition Zrotation Yrotation Xrotation 
	JOINT LHipJoint
	{
		OFFSET 0.000000 0.000000 0.000000
		CHANNELS 3 Zrotation Yrotation Xrotation
		JOINT LeftUpLeg
		{
			OFFSET 1.800000 -1.400000 0.085000
			CHANNELS 3 Zrotation Yrotation Xrotation
			JOINT LeftLeg
			{
				OFFSET 2.215000 -6.000000 0.000000
				CHANNELS 3 Zrotation Yrotation Xrotation
				JOINT LeftFoot
				{
					OFFSET 2.500000 -6.900000 0.000000
					CHANNELS 3 Zrotation Yrotation Xrotation
					JOINT LeftToeBase
					{
						OFFSET 0.200000 -0.500000 1.950000
						CHANNELS 3 Zrotation Yrotation Xrotation
						End Site
						{
							OFFSET 0.000000 0.000000 0.000000
						}
					}
				}
			}
		}
	}
	JOINT RHipJoint
	{
		OFFSET 0.000000 0.000000 0.000000
		CHANNELS 3 Zrotation Yrotation Xrotation
		JOINT RightUpLeg
		{
			OFFSET -1.800000 -1.400000 0.085000
			CHANNELS 3 Zrotation Yrotation Xrotation
			JOINT RightLeg
			{
				OFFSET -2.215000 -6.000000 0.000000
				CHANNELS 3 Zrotation Yrotation Xrotation
				JOINT RightFoot
				{
					OFFSET -2.500000 -6.900000 0.000000
					CHANNELS 3 Zrotation Yrotation Xrotation
					JOINT RightToeBase
					{
						OFFSET -0.200000 -0.500000 1.950000
						CHANNELS 3 Zrotation Yrotation Xrotation
						End Site
						{
							OFFSET 0.000000 0.000000 0.000000
						}
					}
				}
			}
		}
	}
	JOINT LowerBack
	{
		OFFSET 0.000000 0.000000 0.000000
		CHANNELS 3 Zrotation Yrotation Xrotation
		JOINT Spine
		{
			OFFSET -0.087000 1.940000 -0.288900
			CHANNELS 3 Zrotation Yrotation Xrotation
			JOINT Spine1
			{
				OFFSET 0.000000 1.950000 0.060000
				CHANNELS 3 Zrotation Yrotation Xrotation
				JOINT Neck
				{
					OFFSET 0.000000 0.000000 0.000000
					CHANNELS 3 Zrotation Yrotation Xrotation
					JOINT Neck1
					{
						OFFSET 0.000000 1.600000 0.340000
						CHANNELS 3 Zrotation Yrotation Xrotation
						JOINT Head
						{
							OFFSET 0.000000 1.667000 -0.240000
							CHANNELS 3 Zrotation Yrotation Xrotation
							End Site
							{
								OFFSET 0.000000 0.000000 0.000000
							}
						}
					}
				}
				JOINT LeftShoulder
				{
					OFFSET 0.000000 0.000000 0.000000
					CHANNELS 3 Zrotation Yrotation Xrotation
					JOINT LeftArm
					{
						OFFSET 2.700000 1.550000 -0.730000
						CHANNELS 3 Zrotation Yrotation Xrotation
						JOINT LeftForeArm
						{
							OFFSET 5.450000 0.000000 0.000000
							CHANNELS 3 Zrotation Yrotation Xrotation
							JOINT LeftHand
							{
								OFFSET 3.450000 0.000000 0.000000
								CHANNELS 3 Zrotation Yrotation Xrotation
								JOINT LeftHandIndex1
								{
									OFFSET 0.750000 0.000000 0.000000
									CHANNELS 3 Zrotation Yrotation Xrotation
									End Site
									{
										OFFSET 0.000000 0.000000 0.000000
									}
								}
							}
						}
					}
				}
				JOINT RightShoulder
				{
					OFFSET 0.000000 0.000000 0.000000
					CHANNELS 3 Zrotation Yrotation Xrotation
					JOINT RightArm
					{
						OFFSET -2.700000 1.550000 -0.730000
						CHANNELS 3 Zrotation Yrotation Xrotation
						JOINT RightForeArm
						{
							OFFSET -5.450000 0.000000 0.000000
							CHANNELS 3 Zrotation Yrotation Xrotation
							JOINT RightHand
							{
								OFFSET -3.450000 0.000000 0.000000
								CHANNELS 3 Zrotation Yrotation Xrotation
								JOINT RightHandIndex1
								{
									OFFSET -0.750000 0.000000 0.000000
									CHANNELS 3 Zrotation Yrotation Xrotation
									End Site
									{
										OFFSET 0.000000 0.000000 0.000000
									}
								}
							}
						}
					}
				}
			}
		}
	}
}
MOTION
Frames: 13
Frame Time: 0.016667
9.368630 17.031250 -5.905910 -9.583362 -75.540234 9.087598 -15.936672 14.798160 4.059631 7.935509 -0.975284 -3.809300 -6.125387 3.355035 -5.903114 -0.553270 4.905775 3.191042 -0.149530 -0.445560 -0.137790 17.418843 -9.812998 1.743854 -14.399062 -0.858948 -1.157378 1.052720 -5.126780 12.837273 -0.240671 -3.858344 3.338319 -0.108000 0.546330 -0.003730 -1.273161 -7.366105 -7.238904 -12.033950 1.362175 13.664329 10.994103 0.645194 7.779400 -3.100955 -7.520998 -12.936276 -18.559043 17.489685 23.333887 -9.510510 18.786590 -19.705440 -2.388723 -4.736953 8.022826 -15.062734 -17.096867 7.570138 151.716085 -54.376413 -133.975721 -4.161951 2.572416 0.840390 0.198230 -0.173310 0.135090 10.779428 8.012006 8.080461 48.415308 -13.218652 -18.741610 -41.544080 49.909747 -14.507638 1.479500 -1.043408 -0.719680 0.549750 0.355200 -0.311840 
9.420490 17.069940 -5.973330 -9.090474 -77.688522 7.019896 -15.947803 14.763608 3.944729 8.226261 -0.482870 -2.081477 -6.208220 3.601266 -5.664560 -0.484311 5.018707 3.144281 -0.096660 -0.386280 -0.083300 17.453307 -9.536350 1.896043 -16.053519 -0.953819 1.796770 3.116480 -5.463929 9.365216 -0.361419 -4.110106 3.260877 -0.097300 0.462810 -0.020220 -1.122482 -7.638931 -7.347553 -12.465755 1.877594 14.690145 9.753678 1.419237 10.670837 -3.001250 -8.017000 -13.859954 -20.366873 17.589135 23.305341 -10.761530 18.540660 -23.113440 -3.360253 -7.799262 8.687274 -15.103824 -19.193738 7.684043 155.347186 -48.954200 -136.688660 -4.084027 2.537545 0.882980 0.126860 -0.115950 0.135420 11.057710 11.537018 9.031277 48.597969 -11.240787 -17.951640 -40.366907 43.319139 -12.258047 1.620081 -1.099521 -0.693680 0.543590 0.309570 -0.320610 
9.475810 17.087630 -6.030900 -7.596208 -79.155929 4.943682 -15.921902 14.696739 3.840334 8.344199 -0.234989 -1.600560 -6.322437 3.732964 -5.398848 -0.496957 5.074450 3.116570 -0.045550 -0.343080 -0.040900 17.516480 -9.347419 1.999744 -17.173871 -0.958595 3.377079 4.605362 -5.670628 7.256292 -0.440064 -4.335143 3.170091 -0.068800 0.433960 -0.015180 -1.042027 -7.759490 -7.384340 -12.097718 1.958270 14.805216 8.119727 1.936759 13.092842 -3.013851 -8.566964 -14.363986 -22.042984 17.779913 22.355721 -11.113580 18.106210 -24.235190 -4.214883 -9.483879 9.179240 -17.089370 -21.359994 8.001521 153.326439 -44.884711 -130.520220 -4.062338 2.464037 0.907690 0.102350 -0.096790 0.142360 11.378596 13.610180 9.416505 47.935188 -9.721034 -16.956040 -40.151271 37.930865 -10.741325 1.705192 -1.172673 -0.688500 0.542750 0.287790 -0.329540 
9.533410 17.091270 -6.104040 -2.491657 -80.673765 -0.280200 -15.728880 14.615772 3.698666 8.241457 -0.074789 -2.136338 -6.733087 3.954362 -4.003668 -0.515878 4.953655 3.129382 0.010200 -0.270890 -0.011330 17.701167 -9.366513 2.113347 -18.462084 -0.873187 4.028616 5.093260 -5.660423 5.792719 -0.497281 -4.470782 3.106558 -0.036890 0.389650 -0.025650 -1.052095 -7.557868 -7.394077 -12.180866 1.949934 15.223377 5.625977 2.522859 13.607370 -2.687794 -9.075066 -14.765681 -23.628437 18.461138 21.281140 -9.876720 17.702670 -25.083490 -5.662149 -10.184950 9.392673 -20.684957 -21.691634 7.162463 149.237927 -43.705373 -123.866574 -4.000648 2.435034 0.908740 0.058870 -0.072650 0.147650 11.960230 14.653494 9.530767 47.264665 -8.955607 -16.387999 -37.162303 35.841374 -9.338534 1.747647 -1.191865 -0.658090 0.530770 0.254650 -0.321000 
9.577080 17.067900 -6.155350 -0.587681 -82.177498 -1.617923 -15.654711 14.493048 3.591852 8.874965 -0.178872 -3.446793 -6.865624 4.052734 -2.757275 -0.596258 4.836336 3.146296 0.075780 -0.178930 -0.022530 17.744531 -9.501162 2.227475 -18.859293 -0.826232 3.709187 5.443217 -5.599666 4.992604 -0.527744 -4.530470 3.077218 0.030740 0.404780 -0.011340 -1.434880 -7.108690 -7.350491 -9.950721 1.216375 15.272822 2.235481 2.596684 12.834526 -2.394100 -9.846929 -14.934830 -25.763569 19.183487 19.007776 -7.505010 16.555340 -25.072440 -7.331139 -9.905069 9.103678 -25.170437 -21.737911 6.676182 145.127382 -45.166516 -120.102167 -3.980470 2.442425 0.895270 0.059800 -0.067920 0.181150 13.043141 14.549673 9.312050 44.616397 -9.074069 -15.566666 -31.705735 36.905964 -7.951153 1.682176 -1.182931 -0.636010 0.554700 0.245740 -0.295510 
9.612060 17.040880 -6.206130 3.922086 -83.814335 -5.136940 -15.558452 14.380256 3.517271 9.478278 -0.340365 -4.787087 -7.170225 4.123139 -2.024816 -0.699239 4.809148 3.141408 0.103070 -0.133460 -0.020510 17.838664 -9.566763 2.236957 -19.139236 -0.715245 2.661659 5.219577 -5.405984 4.613167 -0.498947 -4.498371 3.071550 0.099850 0.451660 -0.016300 -1.663765 -6.854090 -7.275288 -7.911368 0.444781 13.916919 -1.077543 2.531421 12.935484 -2.062556 -10.111039 -15.177110 -26.883482 20.089676 17.204653 -6.393560 16.483870 -23.172390 -8.198628 -10.421262 9.187633 -30.062438 -23.296489 5.876228 136.802626 -43.463726 -105.949817 -4.024244 2.300949 0.862820 0.104340 -0.099100 0.190000 13.054062 14.611298 8.914373 43.159019 -7.802034 -14.546906 -28.155258 37.002594 -7.013180 1.628229 -1.183751 -0.659880 0.598600 0.257410 -0.293530 
9.657090 17.009680 -6.244190 10.495712 -85.335340 -11.565416 -15.406607 14.256624 3.444706 10.218144 -0.371370 -5.434545 -7.602778 4.296563 -0.898515 -0.748278 4.757261 3.131661 0.200340 -0.006270 0.008420 17.965822 -9.742649 2.252842 -19.926869 -0.747693 1.764937 5.486872 -5.470732 5.036483 -0.525558 -4.497203 3.050624 0.179960 0.422400 -0.019930 -2.010559 -6.446238 -7.250820 -5.361083 -0.143026 14.638860 -4.680246 2.554353 12.275349 -1.422167 -10.794937 -15.625370 -30.162918 20.532867 14.912284 -5.041630 14.969170 -24.263610 -9.618422 -10.825592 8.872381 -35.044820 -23.947287 4.263956 128.862870 -45.496997 -98.159119 -3.972265 2.194774 0.868170 0.068060 -0.063510 0.224990 13.135785 14.810043 8.901808 41.593330 -8.627458 -14.984914 -25.763644 40.865806 -7.075356 1.545732 -1.184796 -0.628920 0.628470 0.216350 -0.271140 
9.718450 16.963140 -6.266890 11.219851 -86.207273 -12.522670 -15.419727 14.098374 3.375132 11.678128 -0.453693 -6.211675 -7.643153 4.387845 -0.001421 -0.831766 4.687953 3.108533 0.359700 0.204030 0.092970 17.939851 -9.958404 2.217795 -20.070054 -0.970750 0.996027 5.575237 -5.589444 6.085246 -0.567666 -4.495692 3.021368 0.315350 0.343590 -0.026550 -2.834084 -5.695642 -7.181249 -0.511011 -1.065166 15.916052 -9.177999 2.317544 12.645827 -0.937261 -11.253540 -15.943099 -33.089204 20.215945 13.026687 -5.154390 13.115720 -26.433960 -10.664655 -12.243125 8.265264 -38.000768 -26.773537 3.260253 119.528075 -48.671424 -89.470907 -3.905604 2.007701 0.878990 0.022840 0.002790 0.266720 12.684584 15.206222 8.884206 39.815413 -9.045652 -15.093149 -24.327380 43.295688 -7.199127 1.477634 -1.229439 -0.587590 0.649560 0.127650 -0.258850 
9.785450 16.911340 -6.279920 7.254414 -86.824782 -9.165898 -15.500628 13.961470 3.341321 13.236745 -0.476560 -6.579266 -7.302131 4.384546 0.289383 -0.854209 4.609090 3.105153 0.465450 0.414680 0.133620 17.853240 -10.233847 2.067151 -19.797377 -1.387400 -0.093196 5.297356 -5.856701 8.573073 -0.590224 -4.426009 3.051214 0.440080 0.279880 -0.060680 -3.712027 -4.923923 -7.088080 4.241199 -2.833781 17.350847 -13.478894 1.142081 13.214953 0.124543 -11.363030 -16.268521 -35.976402 20.715426 12.113567 -6.601420 12.343160 -29.133410 -11.948660 -14.518871 8.093622 -40.465826 -28.727112 -0.619897 106.631457 -48.502805 -73.337309 -3.832779 1.801548 0.869450 -0.009980 0.098980 0.321320 11.465122 15.981757 8.624716 37.866553 -7.565881 -15.075086 -24.563978 45.490680 -7.865029 1.432165 -1.201421 -0.553130 0.721200 0.035200 -0.217560 
9.835840 16.841750 -6.285700 7.586037 -87.414438 -9.103303 -15.525283 13.796726 3.291445 14.286557 -0.666847 -7.743448 -7.065436 4.349184 0.968534 -0.930127 4.493295 3.106024 0.580670 0.574920 0.203330 17.822027 -10.558982 1.881420 -19.591187 -1.595790 -2.527623 4.686302 -6.089481 11.701051 -0.586852 -4.313872 3.043105 0.542980 0.229340 -0.055470 -4.500605 -4.034694 -6.932262 8.973210 -4.376330 17.100152 -17.838289 0.002382 12.319295 1.519261 -11.379545 -16.104653 -38.765958 21.782495 11.974392 -7.171180 11.919210 -29.881880 -14.151520 -15.149119 7.364532 -43.159720 -29.887861 -2.619747 90.552446 -46.860738 -55.437305 -3.720112 1.898412 0.888770 -0.036900 0.177210 0.368630 10.707925 15.431788 8.092188 35.381695 -6.976624 -14.816867 -19.813105 49.175637 -6.915200 1.390501 -1.235059 -0.529820 0.746610 -0.046380 -0.197650 
9.876320 16.781970 -6.301710 20.218041 -88.400340 -21.436591 -15.418174 13.766343 3.258067 15.133534 -0.767614 -8.648129 -6.936849 4.446001 2.010739 -0.974970 4.444691 3.066615 0.694310 0.734430 0.267430 17.926271 -10.758063 1.683340 -19.768614 -1.639403 -5.356398 3.957554 -6.287644 15.076045 -0.590236 -4.180925 3.018871 0.631330 0.166350 -0.036170 -4.963930 -3.163158 -6.812712 12.364959 -5.365106 16.793018 -21.079724 -0.714925 11.156957 2.254147 -11.250388 -15.833048 -41.794968 23.172948 11.803845 -7.074990 11.495600 -31.166150 -16.291052 -15.721787 6.527309 -45.405317 -31.091245 -3.088936 73.391524 -39.649158 -37.021344 -3.648254 2.173303 0.888220 -0.071230 0.254520 0.389440 11.171446 14.886255 7.688172 31.881862 -7.314041 -14.408094 -14.956246 52.879055 -5.735654 1.350648 -1.273208 -0.466870 0.771190 -0.084800 -0.184310 
9.907730 16.720870 -6.332960 42.309122 -88.738580 -43.817468 -15.096068 13.871650 3.235399 15.506515 -0.775237 -9.110517 -6.340520 4.546305 3.245434 -0.973892 4.443075 3.060306 0.681360 0.707550 0.285260 18.220813 -10.944023 1.545104 -19.987563 -1.645367 -7.419901 2.978818 -6.539221 18.619761 -0.558479 -4.197257 2.944611 0.612870 0.164810 -0.006260 -4.992708 -2.548607 -6.744149 14.600350 -6.221402 17.225572 -23.524466 -1.358554 10.126635 3.543516 -10.911054 -16.054864 -44.215525 24.303714 12.646393 -8.386110 11.871540 -29.652240 -18.281878 -16.452027 6.165568 -45.412539 -31.526927 -2.942360 60.201506 -30.290738 -23.838190 -3.672500 2.383467 0.893690 -0.066880 0.278990 0.379800 10.633991 14.940570 7.727717 30.056992 -8.599873 -15.036778 -10.418839 57.827755 -4.770995 1.337924 -1.341890 -0.458650 0.762290 -0.076910 -0.181410 
9.921060 16.641090 -6.376670 58.520987 -88.528047 -60.099716 -14.875530 13.806530 3.184813 15.939607 -0.807418 -9.532610 -6.207561 4.622479 4.003001 -1.035458 4.472276 3.032747 0.701900 0.713700 0.323110 18.447275 -11.094857 1.453538 -20.147518 -1.528020 -9.403636 2.493804 -6.897941 22.000337 -0.535297 -4.350903 2.842683 0.646930 0.168040 -0.017050 -5.057462 -2.085651 -6.648828 16.685039 -6.827955 16.691838 -25.937736 -2.015088 8.942981 4.102683 -10.679266 -15.659644 -45.227078 25.004851 13.645719 -7.863450 11.664280 -28.108930 -18.368192 -15.797589 5.316052 -46.707655 -31.353348 -0.450473 48.502310 -19.102233 -13.645515 -3.694105 2.503281 0.909310 -0.056800 0.268190 0.363520 9.445158 13.575014 7.123644 29.244042 -9.219108 -15.184785 -5.676847 62.930326 -3.287237 1.293413 -1.439657 -0.488220 0.785900 -0.070660 -0.207160 
